<svg id="Layer_1" data-name="Layer 1" xmlns="http://www.w3.org/2000/svg" viewBox="0 0 202.19 202"><defs><style>.cls-1{fill:none;stroke:#ece0c6;stroke-miterlimit:10;stroke-width:2px;}</style></defs><title>globle</title><path class="cls-1" d="M101.19,1a100,100,0,0,1,0,200"/><path class="cls-1" d="M101.15,1c33.14,0,60,44.77,60,100s-26.86,100-60,100"/><path class="cls-1" d="M101.11,1c11,0,20,44.77,20,100s-9,100-20,100"/><path class="cls-1" d="M101.08,1c-11,0-20,44.77-20,100s9,100,20,100"/><path class="cls-1" d="M101,1C67.9,1,41,45.77,41,101S67.9,201,101,201"/><path class="cls-1" d="M101,1a100,100,0,0,0,0,200"/><path class="cls-1" d="M87.54,1.9h0c2.09-.07,4.17-.13,6.26-.18h0c1.66,0,3.33-.07,5-.09h0l4.46,0q2.17,0,4.35,0h0l4.55,0h0"/><path class="cls-1" d="M15.56,49h0q18-3,36.06-4.73Q68.27,42.64,84.92,42q16.14-.63,32.29-.31h0q16.49.31,32.94,1.62,17.7,1.39,35.36,3.92"/><path class="cls-1" d="M1.45,91.5q20.12-3.82,40.32-6.16Q61.58,83,81.43,82.14q19.65-.89,39.31-.38T160.3,84.2q20.14,2,40.24,5.37"/><path class="cls-1" d="M5.5,130.74q18.63-3.39,37.32-5.53,19.34-2.2,38.7-3.07,19.58-.89,39.16-.38t38.85,2.36q18.85,1.81,37.68,4.9"/><path class="cls-1" d="M26.21,167.37q14.1-2.06,28.24-3.37,15.38-1.44,30.77-2,15.9-.62,31.79-.31,15.58.3,31.15,1.48,14.47,1.08,28.94,2.93"/></svg>