<svg id="Layer_1" data-name="Layer 1" xmlns="http://www.w3.org/2000/svg" viewBox="0 0 513 420.19"><defs><style>.cls-1{fill:#231f20;stroke:#fff;stroke-miterlimit:10;}</style></defs><title>twitter</title><path class="cls-1" d="M500.4,94.78a194.35,194.35,0,0,1-24.76,9,109.48,109.48,0,0,0,22.28-39.2A8.26,8.26,0,0,0,485.84,55a194.55,194.55,0,0,1-57.6,22.77,110,110,0,0,0-186.85,78.56,111.75,111.75,0,0,0,.9,14.2A281.4,281.4,0,0,1,49.16,68.05a8.26,8.26,0,0,0-13.54,1.07A110.06,110.06,0,0,0,46.89,195.63a93.1,93.1,0,0,1-14.71-6.57,8.26,8.26,0,0,0-12.27,7c0,.49,0,1,0,1.47a110.31,110.31,0,0,0,53.81,94.52q-4.2-.42-8.37-1.22a8.26,8.26,0,0,0-9.41,10.63,109.86,109.86,0,0,0,80.52,73.67A194.46,194.46,0,0,1,32.51,404.83a198.06,198.06,0,0,1-23.28-1.37A8.26,8.26,0,0,0,3.8,418.62a296.46,296.46,0,0,0,160.28,47C276,465.6,346,412.83,385,368.56c48.66-55.2,76.56-128.26,76.56-200.45,0-3,0-6.06-.14-9.1a213.72,213.72,0,0,0,49.18-52.08A8.26,8.26,0,0,0,500.4,94.78Z" transform="translate(0.5 -45.91)"/></svg>